<?xml version="1.0" encoding="UTF-8"?>
<!DOCTYPE score-partwise PUBLIC "-//Recordare//DTD MusicXML 2.0 Partwise//EN"
                                "http://www.musicxml.org/dtds/partwise.dtd">
<score-partwise version="2.0">
  <movement-title>Curious Story</movement-title>
  <identification>
    <creator type="composer">Stephen Heller</creator>
    <encoding>
      <software>Finale 2009 for Windows</software>
      <software>Dolet Light for Finale 2009</software>
      <encoding-date>2014-10-02</encoding-date>
      <supports attribute="new-system" element="print" type="yes" value="yes"/>
      <supports attribute="new-page" element="print" type="yes" value="yes"/>
    </encoding>
  </identification>
  <defaults>
    <scaling>
      <millimeters>7.2319</millimeters>
      <tenths>40</tenths>
    </scaling>
    <page-layout>
      <page-height>1545</page-height>
      <page-width>1194</page-width>
      <page-margins type="both">
        <left-margin>140</left-margin>
        <right-margin>140</right-margin>
        <top-margin>88</top-margin>
        <bottom-margin>88</bottom-margin>
      </page-margins>
    </page-layout>
    <system-layout>
      <system-margins>
        <left-margin>0</left-margin>
        <right-margin>0</right-margin>
      </system-margins>
      <system-distance>121</system-distance>
      <top-system-distance>70</top-system-distance>
    </system-layout>
    <staff-layout>
      <staff-distance>97</staff-distance>
    </staff-layout>
    <appearance>
      <line-width type="stem">1.2457</line-width>
      <line-width type="beam">4.2708</line-width>
      <line-width type="staff">1.2457</line-width>
      <line-width type="light barline">1.2457</line-width>
      <line-width type="heavy barline">4.2708</line-width>
      <line-width type="leger">1.2457</line-width>
      <line-width type="ending">1.2457</line-width>
      <line-width type="wedge">1.2457</line-width>
      <line-width type="enclosure">1.2457</line-width>
      <line-width type="tuplet bracket">1.2457</line-width>
      <note-size type="grace">60</note-size>
      <note-size type="cue">60</note-size>
    </appearance>
    <music-font font-family="Maestro" font-size="20.5"/>
    <word-font font-family="Times New Roman" font-size="10.25"/>
  </defaults>
  <credit page="1">
    <credit-words default-x="597" default-y="1465" font-size="24" font-weight="bold" justify="center" valign="top">Curious Story</credit-words>
  </credit>
  <credit page="1">
    <credit-words default-x="1089" default-y="1399" font-size="12" font-weight="bold" justify="right" valign="top">Stephen Heller</credit-words>
  </credit>
  <credit page="1">
    <credit-words default-x="1014" default-y="1367" font-size="12" font-weight="bold" justify="center" valign="top">Op. 138, No. 9</credit-words>
  </credit>
  <part-list>
    <score-part id="P1">
      <part-name print-object="no">MusicXML Part</part-name>
      <score-instrument id="P1-I1">
        <instrument-name>Acoustic Grand Piano</instrument-name>
      </score-instrument>
      <midi-instrument id="P1-I1">
        <midi-channel>1</midi-channel>
        <midi-program>1</midi-program>
        <volume>80</volume>
        <pan>0</pan>
      </midi-instrument>
    </score-part>
  </part-list>
  <!--=========================================================-->
  <part id="P1">
    <measure number="1" width="317">
      <print>
        <page-layout>
          <page-height>1545</page-height>
          <page-width>1194</page-width>
          <page-margins>
            <left-margin>105</left-margin>
            <right-margin>105</right-margin>
            <top-margin>88</top-margin>
            <bottom-margin>23</bottom-margin>
          </page-margins>
        </page-layout>
        <system-layout>
          <top-system-distance>184</top-system-distance>
        </system-layout>
      </print>
      <attributes>
        <divisions>24</divisions>
        <key>
          <fifths>-1</fifths>
          <mode>major</mode>
        </key>
        <time>
          <beats>2</beats>
          <beat-type>4</beat-type>
        </time>
        <staves>2</staves>
        <clef number="1">
          <sign>G</sign>
          <line>2</line>
        </clef>
        <clef number="2">
          <sign>F</sign>
          <line>4</line>
        </clef>
      </attributes>
      <sound tempo="100"/>
      <note default-x="106">
        <pitch>
          <step>F</step>
          <octave>4</octave>
        </pitch>
        <duration>8</duration>
        <voice>1</voice>
        <type>eighth</type>
        <time-modification>
          <actual-notes>3</actual-notes>
          <normal-notes>2</normal-notes>
        </time-modification>
        <stem default-y="0">up</stem>
        <staff>1</staff>
        <beam number="1">begin</beam>
        <notations>
          <tuplet number="1" placement="above" type="start"/>
          <articulations>
            <staccato default-y="-49" placement="below"/>
          </articulations>
          <technical>
            <fingering default-y="13" placement="above">1</fingering>
          </technical>
        </notations>
      </note>
      <direction placement="below">
        <direction-type>
          <dynamics default-y="-80">
            <mf/>
          </dynamics>
        </direction-type>
        <offset sound="yes">-4</offset>
        <staff>1</staff>
        <sound dynamics="93"/>
      </direction>
      <note default-x="141">
        <rest/>
        <duration>8</duration>
        <voice>1</voice>
        <type>eighth</type>
        <time-modification>
          <actual-notes>3</actual-notes>
          <normal-notes>2</normal-notes>
        </time-modification>
        <staff>1</staff>
      </note>
      <note default-x="176">
        <pitch>
          <step>F</step>
          <octave>4</octave>
        </pitch>
        <duration>8</duration>
        <voice>1</voice>
        <type>eighth</type>
        <time-modification>
          <actual-notes>3</actual-notes>
          <normal-notes>2</normal-notes>
        </time-modification>
        <stem default-y="0">up</stem>
        <staff>1</staff>
        <beam number="1">end</beam>
        <notations>
          <tuplet number="1" type="stop"/>
          <slur bezier-x="27" bezier-y="21" default-x="19" default-y="3" number="1" placement="above" type="start"/>
        </notations>
      </note>
      <note default-x="211">
        <pitch>
          <step>F</step>
          <octave>5</octave>
        </pitch>
        <duration>8</duration>
        <voice>1</voice>
        <type>eighth</type>
        <time-modification>
          <actual-notes>3</actual-notes>
          <normal-notes>2</normal-notes>
        </time-modification>
        <stem default-y="-40">down</stem>
        <staff>1</staff>
        <beam number="1">begin</beam>
        <notations>
          <tuplet number="1" placement="below" type="start"/>
        </notations>
      </note>
      <note default-x="246">
        <pitch>
          <step>E</step>
          <octave>5</octave>
        </pitch>
        <duration>8</duration>
        <voice>1</voice>
        <type>eighth</type>
        <time-modification>
          <actual-notes>3</actual-notes>
          <normal-notes>2</normal-notes>
        </time-modification>
        <stem default-y="-41">down</stem>
        <staff>1</staff>
        <beam number="1">continue</beam>
      </note>
      <note default-x="281">
        <pitch>
          <step>D</step>
          <octave>5</octave>
        </pitch>
        <duration>8</duration>
        <voice>1</voice>
        <type>eighth</type>
        <time-modification>
          <actual-notes>3</actual-notes>
          <normal-notes>2</normal-notes>
        </time-modification>
        <stem default-y="-42.5">down</stem>
        <staff>1</staff>
        <beam number="1">end</beam>
        <notations>
          <tuplet number="1" type="stop"/>
        </notations>
      </note>
      <backup>
        <duration>48</duration>
      </backup>
      <note>
        <rest/>
        <duration>48</duration>
        <voice>2</voice>
        <staff>2</staff>
      </note>
    </measure>
    <!--=======================================================-->
    <measure number="2" width="240">
      <note default-x="10">
        <pitch>
          <step>C</step>
          <octave>5</octave>
        </pitch>
        <duration>12</duration>
        <voice>1</voice>
        <type>eighth</type>
        <stem default-y="-50">down</stem>
        <staff>1</staff>
        <beam number="1">begin</beam>
        <notations>
          <slur bezier-x="-28" bezier-y="20" default-x="6" default-y="3" number="1" type="stop"/>
        </notations>
      </note>
      <note default-x="61">
        <rest/>
        <duration>6</duration>
        <voice>1</voice>
        <type>16th</type>
        <staff>1</staff>
      </note>
      <note default-x="93">
        <pitch>
          <step>C</step>
          <octave>5</octave>
        </pitch>
        <duration>6</duration>
        <voice>1</voice>
        <type>16th</type>
        <stem default-y="-50">down</stem>
        <staff>1</staff>
        <beam number="1">end</beam>
        <beam number="2">backward hook</beam>
        <notations>
          <slur number="1" placement="above" type="start"/>
          <technical>
            <fingering placement="above">4</fingering>
          </technical>
        </notations>
      </note>
      <note default-x="125">
        <pitch>
          <step>B</step>
          <alter>-1</alter>
          <octave>4</octave>
        </pitch>
        <duration>12</duration>
        <voice>1</voice>
        <type>eighth</type>
        <stem default-y="-55">down</stem>
        <staff>1</staff>
        <beam number="1">begin</beam>
        <notations>
          <slur number="1" type="stop"/>
        </notations>
      </note>
      <note default-x="175">
        <rest/>
        <duration>6</duration>
        <voice>1</voice>
        <type>16th</type>
        <staff>1</staff>
      </note>
      <note default-x="207">
        <pitch>
          <step>B</step>
          <alter>-1</alter>
          <octave>4</octave>
        </pitch>
        <duration>6</duration>
        <voice>1</voice>
        <type>16th</type>
        <stem default-y="-55">down</stem>
        <staff>1</staff>
        <beam number="1">end</beam>
        <beam number="2">backward hook</beam>
        <notations>
          <slur number="1" placement="above" type="start"/>
          <technical>
            <fingering placement="above">4</fingering>
          </technical>
        </notations>
      </note>
      <backup>
        <duration>48</duration>
      </backup>
      <note default-x="10">
        <rest/>
        <duration>24</duration>
        <voice>2</voice>
        <type>quarter</type>
        <staff>2</staff>
      </note>
      <note default-x="125">
        <pitch>
          <step>D</step>
          <octave>4</octave>
        </pitch>
        <duration>12</duration>
        <voice>2</voice>
        <type>eighth</type>
        <stem default-y="-20.5">down</stem>
        <staff>2</staff>
        <notations>
          <articulations>
            <staccato default-y="35" placement="above"/>
          </articulations>
          <technical>
            <fingering default-y="-60" placement="below">1</fingering>
            <fingering default-y="-76" placement="below">2</fingering>
          </technical>
        </notations>
      </note>
      <note default-x="125">
        <chord/>
        <pitch>
          <step>F</step>
          <octave>4</octave>
        </pitch>
        <duration>12</duration>
        <voice>2</voice>
        <type>eighth</type>
        <stem>down</stem>
        <staff>2</staff>
      </note>
      <note default-x="175">
        <rest/>
        <duration>12</duration>
        <voice>2</voice>
        <type>eighth</type>
        <staff>2</staff>
      </note>
    </measure>
    <!--=======================================================-->
    <measure number="3" width="246">
      <note default-x="13">
        <pitch>
          <step>A</step>
          <octave>4</octave>
        </pitch>
        <duration>12</duration>
        <voice>1</voice>
        <type>eighth</type>
        <stem default-y="10">up</stem>
        <staff>1</staff>
        <beam number="1">begin</beam>
        <notations>
          <slur number="1" type="stop"/>
        </notations>
      </note>
      <note default-x="65">
        <rest/>
        <duration>6</duration>
        <voice>1</voice>
        <type>16th</type>
        <staff>1</staff>
      </note>
      <note default-x="97">
        <pitch>
          <step>A</step>
          <octave>4</octave>
        </pitch>
        <duration>6</duration>
        <voice>1</voice>
        <type>16th</type>
        <stem default-y="10">up</stem>
        <staff>1</staff>
        <beam number="1">end</beam>
        <beam number="2">backward hook</beam>
        <notations>
          <slur number="1" placement="below" type="start"/>
          <technical>
            <fingering default-y="15" placement="above">4</fingering>
          </technical>
        </notations>
      </note>
      <note default-x="129">
        <pitch>
          <step>E</step>
          <octave>4</octave>
        </pitch>
        <duration>12</duration>
        <voice>1</voice>
        <type>eighth</type>
        <stem default-y="5">up</stem>
        <staff>1</staff>
        <beam number="1">begin</beam>
        <notations>
          <slur number="1" type="stop"/>
          <technical>
            <fingering default-y="10" placement="above">1</fingering>
            <fingering default-y="24" placement="above">3</fingering>
          </technical>
        </notations>
      </note>
      <note default-x="129">
        <chord/>
        <pitch>
          <step>G</step>
          <octave>4</octave>
        </pitch>
        <duration>12</duration>
        <voice>1</voice>
        <type>eighth</type>
        <stem>up</stem>
        <staff>1</staff>
      </note>
      <note default-x="181">
        <rest/>
        <duration>6</duration>
        <voice>1</voice>
        <type>16th</type>
        <staff>1</staff>
      </note>
      <note default-x="213">
        <pitch>
          <step>G</step>
          <octave>4</octave>
        </pitch>
        <duration>6</duration>
        <voice>1</voice>
        <type>16th</type>
        <stem default-y="5">up</stem>
        <staff>1</staff>
        <beam number="1">end</beam>
        <beam number="2">backward hook</beam>
        <notations>
          <slur number="1" placement="below" type="start"/>
          <technical>
            <fingering default-y="10" placement="above">4</fingering>
          </technical>
        </notations>
      </note>
      <backup>
        <duration>48</duration>
      </backup>
      <note default-x="13">
        <pitch>
          <step>C</step>
          <octave>4</octave>
        </pitch>
        <duration>12</duration>
        <voice>2</voice>
        <type>eighth</type>
        <stem default-y="-26">down</stem>
        <staff>2</staff>
        <notations>
          <articulations>
            <staccato default-y="20" placement="above"/>
          </articulations>
        </notations>
      </note>
      <note default-x="65">
        <rest/>
        <duration>12</duration>
        <voice>2</voice>
        <type>eighth</type>
        <staff>2</staff>
      </note>
      <note default-x="129">
        <pitch>
          <step>C</step>
          <octave>3</octave>
        </pitch>
        <duration>12</duration>
        <voice>2</voice>
        <type>eighth</type>
        <stem default-y="-60.5">down</stem>
        <staff>2</staff>
        <notations>
          <articulations>
            <staccato default-y="15" placement="above"/>
          </articulations>
          <technical>
            <fingering default-y="-72" placement="below">1</fingering>
            <fingering default-y="-91" placement="below">5</fingering>
          </technical>
        </notations>
      </note>
      <note default-x="129">
        <chord/>
        <pitch>
          <step>B</step>
          <alter>-1</alter>
          <octave>3</octave>
        </pitch>
        <duration>12</duration>
        <voice>2</voice>
        <type>eighth</type>
        <stem>down</stem>
        <staff>2</staff>
      </note>
      <note default-x="181">
        <rest/>
        <duration>12</duration>
        <voice>2</voice>
        <type>eighth</type>
        <staff>2</staff>
      </note>
    </measure>
    <!--=======================================================-->
    <measure number="4" width="181">
      <note default-x="11">
        <pitch>
          <step>F</step>
          <octave>4</octave>
        </pitch>
        <duration>24</duration>
        <voice>1</voice>
        <type>quarter</type>
        <stem default-y="1">up</stem>
        <staff>1</staff>
        <notations>
          <articulations>
            <accent default-y="-56" placement="below"/>
          </articulations>
        </notations>
      </note>
      <note default-x="86">
        <pitch>
          <step>C</step>
          <octave>4</octave>
        </pitch>
        <duration>12</duration>
        <voice>1</voice>
        <type>eighth</type>
        <stem default-y="-14">up</stem>
        <staff>1</staff>
        <notations>
          <slur number="1" type="stop"/>
        </notations>
      </note>
      <note default-x="133">
        <rest/>
        <duration>12</duration>
        <voice>1</voice>
        <type>eighth</type>
        <staff>1</staff>
      </note>
      <backup>
        <duration>48</duration>
      </backup>
      <note default-x="11">
        <pitch>
          <step>F</step>
          <octave>3</octave>
        </pitch>
        <duration>24</duration>
        <voice>2</voice>
        <type>quarter</type>
        <stem default-y="-46">down</stem>
        <staff>2</staff>
        <notations>
          <articulations>
            <accent default-y="10" placement="above"/>
          </articulations>
          <technical>
            <fingering default-y="-58" placement="below">1</fingering>
            <fingering default-y="-77" placement="below">3</fingering>
          </technical>
        </notations>
      </note>
      <note default-x="11">
        <chord/>
        <pitch>
          <step>A</step>
          <octave>3</octave>
        </pitch>
        <duration>24</duration>
        <voice>2</voice>
        <type>quarter</type>
        <stem>down</stem>
        <staff>2</staff>
      </note>
      <note default-x="86">
        <rest/>
        <duration>24</duration>
        <voice>2</voice>
        <type>quarter</type>
        <staff>2</staff>
      </note>
    </measure>
    <!--=======================================================-->
    <measure number="5" width="315">
      <print new-system="yes">
        <system-layout>
          <system-distance>127</system-distance>
        </system-layout>
      </print>
      <attributes>
        <clef number="2">
          <sign>G</sign>
          <line>2</line>
        </clef>
      </attributes>
      <direction placement="below">
        <direction-type>
          <dynamics default-y="-80">
            <p/>
          </dynamics>
        </direction-type>
        <offset sound="yes">2</offset>
        <staff>1</staff>
        <sound dynamics="84"/>
      </direction>
      <note default-x="75">
        <pitch>
          <step>F</step>
          <octave>5</octave>
        </pitch>
        <duration>8</duration>
        <voice>1</voice>
        <type>eighth</type>
        <time-modification>
          <actual-notes>3</actual-notes>
          <normal-notes>2</normal-notes>
        </time-modification>
        <stem default-y="-35">down</stem>
        <staff>1</staff>
        <beam number="1">begin</beam>
        <notations>
          <tuplet number="1" placement="below" type="start"/>
          <articulations>
            <staccato default-y="10" placement="above"/>
          </articulations>
          <technical>
            <fingering default-y="25" placement="above">1</fingering>
          </technical>
        </notations>
      </note>
      <note default-x="115">
        <rest/>
        <duration>8</duration>
        <voice>1</voice>
        <type>eighth</type>
        <time-modification>
          <actual-notes>3</actual-notes>
          <normal-notes>2</normal-notes>
        </time-modification>
        <staff>1</staff>
      </note>
      <note default-x="154">
        <pitch>
          <step>F</step>
          <octave>5</octave>
        </pitch>
        <duration>8</duration>
        <voice>1</voice>
        <type>eighth</type>
        <time-modification>
          <actual-notes>3</actual-notes>
          <normal-notes>2</normal-notes>
        </time-modification>
        <stem default-y="-35">down</stem>
        <staff>1</staff>
        <beam number="1">end</beam>
        <notations>
          <tuplet number="1" type="stop"/>
          <slur bezier-x="4" bezier-y="43" default-x="6" default-y="17" number="1" placement="above" type="start"/>
        </notations>
      </note>
      <note default-x="194">
        <pitch>
          <step>F</step>
          <octave>6</octave>
        </pitch>
        <duration>8</duration>
        <voice>1</voice>
        <type>eighth</type>
        <time-modification>
          <actual-notes>3</actual-notes>
          <normal-notes>2</normal-notes>
        </time-modification>
        <stem default-y="-20">down</stem>
        <staff>1</staff>
        <beam number="1">begin</beam>
        <notations>
          <tuplet number="1" placement="below" type="start"/>
        </notations>
      </note>
      <note default-x="234">
        <pitch>
          <step>E</step>
          <octave>6</octave>
        </pitch>
        <duration>8</duration>
        <voice>1</voice>
        <type>eighth</type>
        <time-modification>
          <actual-notes>3</actual-notes>
          <normal-notes>2</normal-notes>
        </time-modification>
        <stem default-y="-21">down</stem>
        <staff>1</staff>
        <beam number="1">continue</beam>
      </note>
      <note default-x="274">
        <pitch>
          <step>D</step>
          <octave>6</octave>
        </pitch>
        <duration>8</duration>
        <voice>1</voice>
        <type>eighth</type>
        <time-modification>
          <actual-notes>3</actual-notes>
          <normal-notes>2</normal-notes>
        </time-modification>
        <stem default-y="-22">down</stem>
        <staff>1</staff>
        <beam number="1">end</beam>
        <notations>
          <tuplet number="1" type="stop"/>
        </notations>
      </note>
      <backup>
        <duration>48</duration>
      </backup>
      <note default-x="75">
        <pitch>
          <step>F</step>
          <octave>4</octave>
        </pitch>
        <duration>12</duration>
        <voice>2</voice>
        <type>eighth</type>
        <stem default-y="21">up</stem>
        <staff>2</staff>
        <notations>
          <articulations>
            <staccato default-y="-49" placement="below"/>
          </articulations>
          <technical>
            <fingering default-y="-65" placement="below">1</fingering>
            <fingering default-y="-80" placement="below">3</fingering>
            <fingering default-y="-94" placement="below">5</fingering>
          </technical>
        </notations>
      </note>
      <note default-x="75">
        <chord/>
        <pitch>
          <step>A</step>
          <octave>4</octave>
        </pitch>
        <duration>12</duration>
        <voice>2</voice>
        <type>eighth</type>
        <stem>up</stem>
        <staff>2</staff>
      </note>
      <note default-x="75">
        <chord/>
        <pitch>
          <step>C</step>
          <octave>5</octave>
        </pitch>
        <duration>12</duration>
        <voice>2</voice>
        <type>eighth</type>
        <stem>up</stem>
        <staff>2</staff>
      </note>
      <note default-x="135">
        <rest/>
        <duration>12</duration>
        <voice>2</voice>
        <type>eighth</type>
        <staff>2</staff>
      </note>
      <note default-x="194">
        <pitch>
          <step>F</step>
          <octave>4</octave>
        </pitch>
        <duration>12</duration>
        <voice>2</voice>
        <type>eighth</type>
        <stem default-y="26">up</stem>
        <staff>2</staff>
        <notations>
          <articulations>
            <staccato default-y="-49" placement="below"/>
          </articulations>
        </notations>
      </note>
      <note default-x="194">
        <chord/>
        <pitch>
          <step>B</step>
          <alter>-1</alter>
          <octave>4</octave>
        </pitch>
        <duration>12</duration>
        <voice>2</voice>
        <type>eighth</type>
        <stem>up</stem>
        <staff>2</staff>
      </note>
      <note default-x="194">
        <chord/>
        <pitch>
          <step>D</step>
          <octave>5</octave>
        </pitch>
        <duration>12</duration>
        <voice>2</voice>
        <type>eighth</type>
        <stem>up</stem>
        <staff>2</staff>
      </note>
      <note default-x="255">
        <rest/>
        <duration>12</duration>
        <voice>2</voice>
        <type>eighth</type>
        <staff>2</staff>
      </note>
    </measure>
    <!--=======================================================-->
    <measure number="6" width="284">
      <note default-x="14">
        <pitch>
          <step>C</step>
          <octave>6</octave>
        </pitch>
        <duration>12</duration>
        <voice>1</voice>
        <type>eighth</type>
        <stem default-y="-20">down</stem>
        <staff>1</staff>
        <beam number="1">begin</beam>
        <notations>
          <slur bezier-x="-42" bezier-y="35" default-x="6" default-y="40" number="1" type="stop"/>
        </notations>
      </note>
      <note default-x="74">
        <rest/>
        <duration>6</duration>
        <voice>1</voice>
        <type>16th</type>
        <staff>1</staff>
      </note>
      <note default-x="111">
        <pitch>
          <step>C</step>
          <octave>6</octave>
        </pitch>
        <duration>6</duration>
        <voice>1</voice>
        <type>16th</type>
        <stem default-y="-20">down</stem>
        <staff>1</staff>
        <beam number="1">end</beam>
        <beam number="2">backward hook</beam>
        <notations>
          <slur number="1" placement="above" type="start"/>
          <technical>
            <fingering default-y="36" placement="above">4</fingering>
          </technical>
        </notations>
      </note>
      <note default-x="148">
        <pitch>
          <step>B</step>
          <alter>-1</alter>
          <octave>5</octave>
        </pitch>
        <duration>12</duration>
        <voice>1</voice>
        <type>eighth</type>
        <stem default-y="-20">down</stem>
        <staff>1</staff>
        <beam number="1">begin</beam>
        <notations>
          <slur number="1" type="stop"/>
        </notations>
      </note>
      <note default-x="209">
        <rest/>
        <duration>6</duration>
        <voice>1</voice>
        <type>16th</type>
        <staff>1</staff>
      </note>
      <note default-x="246">
        <pitch>
          <step>B</step>
          <alter>-1</alter>
          <octave>5</octave>
        </pitch>
        <duration>6</duration>
        <voice>1</voice>
        <type>16th</type>
        <stem default-y="-20">down</stem>
        <staff>1</staff>
        <beam number="1">end</beam>
        <beam number="2">backward hook</beam>
        <notations>
          <slur number="1" placement="above" type="start"/>
          <technical>
            <fingering default-y="30" placement="above">4</fingering>
          </technical>
        </notations>
      </note>
      <backup>
        <duration>48</duration>
      </backup>
      <note default-x="14">
        <pitch>
          <step>F</step>
          <octave>4</octave>
        </pitch>
        <duration>12</duration>
        <voice>2</voice>
        <type>eighth</type>
        <stem default-y="21">up</stem>
        <staff>2</staff>
        <notations>
          <articulations>
            <staccato default-y="-49" placement="below"/>
          </articulations>
        </notations>
      </note>
      <note default-x="14">
        <chord/>
        <pitch>
          <step>A</step>
          <octave>4</octave>
        </pitch>
        <duration>12</duration>
        <voice>2</voice>
        <type>eighth</type>
        <stem>up</stem>
        <staff>2</staff>
      </note>
      <note default-x="14">
        <chord/>
        <pitch>
          <step>C</step>
          <octave>5</octave>
        </pitch>
        <duration>12</duration>
        <voice>2</voice>
        <type>eighth</type>
        <stem>up</stem>
        <staff>2</staff>
      </note>
      <note default-x="74">
        <rest/>
        <duration>12</duration>
        <voice>2</voice>
        <type>eighth</type>
        <staff>2</staff>
      </note>
      <note default-x="148">
        <pitch>
          <step>D</step>
          <octave>5</octave>
        </pitch>
        <duration>12</duration>
        <voice>2</voice>
        <type>eighth</type>
        <stem default-y="-45.5">down</stem>
        <staff>2</staff>
        <notations>
          <articulations>
            <staccato default-y="10" placement="above"/>
          </articulations>
          <technical>
            <fingering default-y="-60" placement="below">1</fingering>
            <fingering default-y="-75" placement="below">2</fingering>
          </technical>
        </notations>
      </note>
      <note default-x="148">
        <chord/>
        <pitch>
          <step>F</step>
          <octave>5</octave>
        </pitch>
        <duration>12</duration>
        <voice>2</voice>
        <type>eighth</type>
        <stem>down</stem>
        <staff>2</staff>
      </note>
      <note default-x="209">
        <rest/>
        <duration>12</duration>
        <voice>2</voice>
        <type>eighth</type>
        <staff>2</staff>
      </note>
    </measure>
    <!--=======================================================-->
    <measure number="7" width="258">
      <note default-x="14">
        <pitch>
          <step>A</step>
          <octave>5</octave>
        </pitch>
        <duration>12</duration>
        <voice>1</voice>
        <type>eighth</type>
        <stem default-y="-25">down</stem>
        <staff>1</staff>
        <beam number="1">begin</beam>
        <notations>
          <slur number="1" type="stop"/>
        </notations>
      </note>
      <note default-x="68">
        <rest/>
        <duration>6</duration>
        <voice>1</voice>
        <type>16th</type>
        <staff>1</staff>
      </note>
      <note default-x="102">
        <pitch>
          <step>A</step>
          <octave>5</octave>
        </pitch>
        <duration>6</duration>
        <voice>1</voice>
        <type>16th</type>
        <stem default-y="-25">down</stem>
        <staff>1</staff>
        <beam number="1">end</beam>
        <beam number="2">backward hook</beam>
        <notations>
          <slur number="1" placement="above" type="start"/>
          <technical>
            <fingering default-y="25" placement="above">4</fingering>
          </technical>
        </notations>
      </note>
      <note default-x="135">
        <pitch>
          <step>E</step>
          <octave>5</octave>
        </pitch>
        <duration>12</duration>
        <voice>1</voice>
        <type>eighth</type>
        <stem default-y="-35">down</stem>
        <staff>1</staff>
        <beam number="1">begin</beam>
        <notations>
          <slur number="1" type="stop"/>
          <technical>
            <fingering default-y="23" placement="above">1</fingering>
            <fingering default-y="38" placement="above">3</fingering>
          </technical>
        </notations>
      </note>
      <note default-x="135">
        <chord/>
        <pitch>
          <step>G</step>
          <octave>5</octave>
        </pitch>
        <duration>12</duration>
        <voice>1</voice>
        <type>eighth</type>
        <stem>down</stem>
        <staff>1</staff>
      </note>
      <note default-x="190">
        <rest/>
        <duration>6</duration>
        <voice>1</voice>
        <type>16th</type>
        <staff>1</staff>
      </note>
      <note default-x="223">
        <pitch>
          <step>G</step>
          <octave>5</octave>
        </pitch>
        <duration>6</duration>
        <voice>1</voice>
        <type>16th</type>
        <stem default-y="-32.5">down</stem>
        <staff>1</staff>
        <beam number="1">end</beam>
        <beam number="2">backward hook</beam>
        <notations>
          <slur number="1" placement="above" type="start"/>
          <technical>
            <fingering default-y="23" placement="above">4</fingering>
          </technical>
        </notations>
      </note>
      <backup>
        <duration>48</duration>
      </backup>
      <note default-x="14">
        <pitch>
          <step>C</step>
          <octave>5</octave>
        </pitch>
        <duration>12</duration>
        <voice>2</voice>
        <type>eighth</type>
        <stem default-y="-51">down</stem>
        <staff>2</staff>
        <notations>
          <articulations>
            <staccato default-y="10" placement="above"/>
          </articulations>
        </notations>
      </note>
      <note default-x="14">
        <chord/>
        <pitch>
          <step>F</step>
          <octave>5</octave>
        </pitch>
        <duration>12</duration>
        <voice>2</voice>
        <type>eighth</type>
        <stem>down</stem>
        <staff>2</staff>
      </note>
      <note default-x="68">
        <rest/>
        <duration>12</duration>
        <voice>2</voice>
        <type>eighth</type>
        <staff>2</staff>
      </note>
      <note default-x="135">
        <pitch>
          <step>C</step>
          <octave>4</octave>
        </pitch>
        <duration>12</duration>
        <voice>2</voice>
        <type>eighth</type>
        <stem default-y="16">up</stem>
        <staff>2</staff>
        <notations>
          <articulations>
            <staccato default-y="-63" placement="below"/>
          </articulations>
        </notations>
      </note>
      <note default-x="135">
        <chord/>
        <pitch>
          <step>B</step>
          <alter>-1</alter>
          <octave>4</octave>
        </pitch>
        <duration>12</duration>
        <voice>2</voice>
        <type>eighth</type>
        <stem>up</stem>
        <staff>2</staff>
      </note>
      <note default-x="190">
        <rest/>
        <duration>12</duration>
        <voice>2</voice>
        <type>eighth</type>
        <staff>2</staff>
      </note>
    </measure>
    <!--=======================================================-->
    <measure number="8" width="126">
      <note default-x="11">
        <pitch>
          <step>F</step>
          <octave>5</octave>
        </pitch>
        <duration>48</duration>
        <voice>1</voice>
        <type>half</type>
        <stem default-y="-36">down</stem>
        <staff>1</staff>
        <notations>
          <slur number="1" type="stop"/>
          <articulations>
            <accent default-y="18" placement="above"/>
          </articulations>
        </notations>
      </note>
      <backup>
        <duration>48</duration>
      </backup>
      <note default-x="11">
        <pitch>
          <step>F</step>
          <octave>4</octave>
        </pitch>
        <duration>48</duration>
        <voice>2</voice>
        <type>half</type>
        <stem default-y="10.5">up</stem>
        <staff>2</staff>
        <notations>
          <articulations>
            <accent default-y="-56" placement="below"/>
          </articulations>
        </notations>
      </note>
      <note default-x="11">
        <chord/>
        <pitch>
          <step>A</step>
          <octave>4</octave>
        </pitch>
        <duration>48</duration>
        <voice>2</voice>
        <type>half</type>
        <stem>up</stem>
        <staff>2</staff>
      </note>
    </measure>
    <!--=======================================================-->
    <measure number="9" width="294">
      <print new-system="yes">
        <system-layout>
          <system-distance>127</system-distance>
        </system-layout>
      </print>
      <attributes>
        <clef number="2">
          <sign>F</sign>
          <line>4</line>
        </clef>
      </attributes>
      <note default-x="75">
        <pitch>
          <step>F</step>
          <octave>4</octave>
        </pitch>
        <duration>8</duration>
        <voice>1</voice>
        <type>eighth</type>
        <time-modification>
          <actual-notes>3</actual-notes>
          <normal-notes>2</normal-notes>
        </time-modification>
        <stem default-y="0">up</stem>
        <staff>1</staff>
        <beam number="1">begin</beam>
        <notations>
          <tuplet number="1" placement="above" type="start"/>
          <articulations>
            <staccato default-y="-48" placement="below"/>
          </articulations>
          <technical>
            <fingering default-y="11" placement="above">1</fingering>
          </technical>
        </notations>
      </note>
      <direction placement="below">
        <direction-type>
          <dynamics default-y="-80">
            <mf/>
          </dynamics>
        </direction-type>
        <offset sound="yes">-4</offset>
        <staff>1</staff>
        <sound dynamics="93"/>
      </direction>
      <note default-x="111">
        <rest/>
        <duration>8</duration>
        <voice>1</voice>
        <type>eighth</type>
        <time-modification>
          <actual-notes>3</actual-notes>
          <normal-notes>2</normal-notes>
        </time-modification>
        <staff>1</staff>
      </note>
      <note default-x="147">
        <pitch>
          <step>F</step>
          <octave>4</octave>
        </pitch>
        <duration>8</duration>
        <voice>1</voice>
        <type>eighth</type>
        <time-modification>
          <actual-notes>3</actual-notes>
          <normal-notes>2</normal-notes>
        </time-modification>
        <stem default-y="0">up</stem>
        <staff>1</staff>
        <beam number="1">end</beam>
        <notations>
          <tuplet number="1" type="stop"/>
          <slur bezier-x="28" bezier-y="21" default-x="19" default-y="3" number="1" placement="above" type="start"/>
        </notations>
      </note>
      <note default-x="183">
        <pitch>
          <step>F</step>
          <octave>5</octave>
        </pitch>
        <duration>8</duration>
        <voice>1</voice>
        <type>eighth</type>
        <time-modification>
          <actual-notes>3</actual-notes>
          <normal-notes>2</normal-notes>
        </time-modification>
        <stem default-y="-40">down</stem>
        <staff>1</staff>
        <beam number="1">begin</beam>
        <notations>
          <tuplet number="1" placement="below" type="start"/>
        </notations>
      </note>
      <note default-x="220">
        <pitch>
          <step>E</step>
          <octave>5</octave>
        </pitch>
        <duration>8</duration>
        <voice>1</voice>
        <type>eighth</type>
        <time-modification>
          <actual-notes>3</actual-notes>
          <normal-notes>2</normal-notes>
        </time-modification>
        <stem default-y="-41">down</stem>
        <staff>1</staff>
        <beam number="1">continue</beam>
      </note>
      <note default-x="256">
        <pitch>
          <step>D</step>
          <octave>5</octave>
        </pitch>
        <duration>8</duration>
        <voice>1</voice>
        <type>eighth</type>
        <time-modification>
          <actual-notes>3</actual-notes>
          <normal-notes>2</normal-notes>
        </time-modification>
        <stem default-y="-42">down</stem>
        <staff>1</staff>
        <beam number="1">end</beam>
        <notations>
          <tuplet number="1" type="stop"/>
        </notations>
      </note>
      <backup>
        <duration>48</duration>
      </backup>
      <note>
        <rest/>
        <duration>48</duration>
        <voice>2</voice>
        <staff>2</staff>
      </note>
    </measure>
    <!--=======================================================-->
    <measure number="10" width="248">
      <note default-x="10">
        <pitch>
          <step>C</step>
          <octave>5</octave>
        </pitch>
        <duration>12</duration>
        <voice>1</voice>
        <type>eighth</type>
        <stem default-y="-50">down</stem>
        <staff>1</staff>
        <beam number="1">begin</beam>
        <notations>
          <slur bezier-x="-29" bezier-y="20" default-x="6" default-y="4" number="1" type="stop"/>
        </notations>
      </note>
      <note default-x="63">
        <rest/>
        <duration>6</duration>
        <voice>1</voice>
        <type>16th</type>
        <staff>1</staff>
      </note>
      <note default-x="96">
        <pitch>
          <step>C</step>
          <octave>5</octave>
        </pitch>
        <duration>6</duration>
        <voice>1</voice>
        <type>16th</type>
        <stem default-y="-50">down</stem>
        <staff>1</staff>
        <beam number="1">end</beam>
        <beam number="2">backward hook</beam>
        <notations>
          <slur number="1" placement="above" type="start"/>
          <technical>
            <fingering placement="above">4</fingering>
          </technical>
        </notations>
      </note>
      <note default-x="128">
        <pitch>
          <step>B</step>
          <alter>-1</alter>
          <octave>4</octave>
        </pitch>
        <duration>12</duration>
        <voice>1</voice>
        <type>eighth</type>
        <stem default-y="-55">down</stem>
        <staff>1</staff>
        <beam number="1">begin</beam>
        <notations>
          <slur number="1" type="stop"/>
        </notations>
      </note>
      <note default-x="182">
        <rest/>
        <duration>6</duration>
        <voice>1</voice>
        <type>16th</type>
        <staff>1</staff>
      </note>
      <note default-x="214">
        <pitch>
          <step>B</step>
          <alter>-1</alter>
          <octave>4</octave>
        </pitch>
        <duration>6</duration>
        <voice>1</voice>
        <type>16th</type>
        <stem default-y="-55">down</stem>
        <staff>1</staff>
        <beam number="1">end</beam>
        <beam number="2">backward hook</beam>
        <notations>
          <slur number="1" placement="above" type="start"/>
          <technical>
            <fingering placement="above">4</fingering>
          </technical>
        </notations>
      </note>
      <backup>
        <duration>48</duration>
      </backup>
      <note default-x="10">
        <rest/>
        <duration>24</duration>
        <voice>2</voice>
        <type>quarter</type>
        <staff>2</staff>
      </note>
      <note default-x="128">
        <pitch>
          <step>D</step>
          <octave>4</octave>
        </pitch>
        <duration>12</duration>
        <voice>2</voice>
        <type>eighth</type>
        <stem default-y="-21">down</stem>
        <staff>2</staff>
        <notations>
          <articulations>
            <staccato default-y="35" placement="above"/>
          </articulations>
          <technical>
            <fingering default-y="-61" placement="below">1</fingering>
            <fingering default-y="-78" placement="below">2</fingering>
          </technical>
        </notations>
      </note>
      <note default-x="128">
        <chord/>
        <pitch>
          <step>F</step>
          <octave>4</octave>
        </pitch>
        <duration>12</duration>
        <voice>2</voice>
        <type>eighth</type>
        <stem>down</stem>
        <staff>2</staff>
      </note>
      <note default-x="182">
        <rest/>
        <duration>12</duration>
        <voice>2</voice>
        <type>eighth</type>
        <staff>2</staff>
      </note>
    </measure>
    <!--=======================================================-->
    <measure number="11" width="254">
      <note default-x="14">
        <pitch>
          <step>A</step>
          <octave>4</octave>
        </pitch>
        <duration>12</duration>
        <voice>1</voice>
        <type>eighth</type>
        <stem default-y="10">up</stem>
        <staff>1</staff>
        <beam number="1">begin</beam>
        <notations>
          <slur number="1" type="stop"/>
        </notations>
      </note>
      <note default-x="67">
        <rest/>
        <duration>6</duration>
        <voice>1</voice>
        <type>16th</type>
        <staff>1</staff>
      </note>
      <note default-x="100">
        <pitch>
          <step>A</step>
          <octave>4</octave>
        </pitch>
        <duration>6</duration>
        <voice>1</voice>
        <type>16th</type>
        <stem default-y="10">up</stem>
        <staff>1</staff>
        <beam number="1">end</beam>
        <beam number="2">backward hook</beam>
        <notations>
          <slur number="1" placement="below" type="start"/>
          <technical>
            <fingering default-y="15" placement="above">4</fingering>
          </technical>
        </notations>
      </note>
      <note default-x="133">
        <pitch>
          <step>E</step>
          <octave>4</octave>
        </pitch>
        <duration>12</duration>
        <voice>1</voice>
        <type>eighth</type>
        <stem default-y="5">up</stem>
        <staff>1</staff>
        <beam number="1">begin</beam>
        <notations>
          <slur number="1" type="stop"/>
          <technical>
            <fingering default-y="10" placement="above">1</fingering>
            <fingering default-y="25" placement="above">3</fingering>
          </technical>
        </notations>
      </note>
      <note default-x="133">
        <chord/>
        <pitch>
          <step>G</step>
          <octave>4</octave>
        </pitch>
        <duration>12</duration>
        <voice>1</voice>
        <type>eighth</type>
        <stem>up</stem>
        <staff>1</staff>
      </note>
      <note default-x="187">
        <rest/>
        <duration>6</duration>
        <voice>1</voice>
        <type>16th</type>
        <staff>1</staff>
      </note>
      <note default-x="220">
        <pitch>
          <step>G</step>
          <octave>4</octave>
        </pitch>
        <duration>6</duration>
        <voice>1</voice>
        <type>16th</type>
        <stem default-y="5">up</stem>
        <staff>1</staff>
        <beam number="1">end</beam>
        <beam number="2">backward hook</beam>
        <notations>
          <slur number="1" placement="below" type="start"/>
          <technical>
            <fingering default-y="10" placement="above">4</fingering>
          </technical>
        </notations>
      </note>
      <backup>
        <duration>48</duration>
      </backup>
      <note default-x="14">
        <pitch>
          <step>C</step>
          <octave>4</octave>
        </pitch>
        <duration>12</duration>
        <voice>2</voice>
        <type>eighth</type>
        <stem default-y="-25.5">down</stem>
        <staff>2</staff>
        <notations>
          <articulations>
            <staccato default-y="20" placement="above"/>
          </articulations>
        </notations>
      </note>
      <note default-x="67">
        <rest/>
        <duration>12</duration>
        <voice>2</voice>
        <type>eighth</type>
        <staff>2</staff>
      </note>
      <note default-x="133">
        <pitch>
          <step>C</step>
          <octave>3</octave>
        </pitch>
        <duration>12</duration>
        <voice>2</voice>
        <type>eighth</type>
        <stem default-y="-61">down</stem>
        <staff>2</staff>
        <notations>
          <articulations>
            <staccato default-y="15" placement="above"/>
          </articulations>
          <technical>
            <fingering default-y="-71" placement="below">1</fingering>
            <fingering default-y="-87" placement="below">5</fingering>
          </technical>
        </notations>
      </note>
      <note default-x="133">
        <chord/>
        <pitch>
          <step>B</step>
          <alter>-1</alter>
          <octave>3</octave>
        </pitch>
        <duration>12</duration>
        <voice>2</voice>
        <type>eighth</type>
        <stem>down</stem>
        <staff>2</staff>
      </note>
      <note default-x="187">
        <rest/>
        <duration>12</duration>
        <voice>2</voice>
        <type>eighth</type>
        <staff>2</staff>
      </note>
    </measure>
    <!--=======================================================-->
    <measure number="12" width="188">
      <note default-x="11">
        <pitch>
          <step>F</step>
          <octave>4</octave>
        </pitch>
        <duration>24</duration>
        <voice>1</voice>
        <type>quarter</type>
        <stem default-y="1">up</stem>
        <staff>1</staff>
        <notations>
          <articulations>
            <accent default-y="-55" placement="below"/>
          </articulations>
        </notations>
      </note>
      <note default-x="89">
        <pitch>
          <step>C</step>
          <octave>4</octave>
        </pitch>
        <duration>12</duration>
        <voice>1</voice>
        <type>eighth</type>
        <stem default-y="-14">up</stem>
        <staff>1</staff>
        <notations>
          <slur number="1" type="stop"/>
        </notations>
      </note>
      <note default-x="138">
        <rest/>
        <duration>12</duration>
        <voice>1</voice>
        <type>eighth</type>
        <staff>1</staff>
      </note>
      <backup>
        <duration>48</duration>
      </backup>
      <note default-x="11">
        <pitch>
          <step>F</step>
          <octave>3</octave>
        </pitch>
        <duration>24</duration>
        <voice>2</voice>
        <type>quarter</type>
        <stem default-y="-45.5">down</stem>
        <staff>2</staff>
        <notations>
          <articulations>
            <accent default-y="9" placement="above"/>
          </articulations>
          <technical>
            <fingering default-y="-60" placement="below">1</fingering>
            <fingering default-y="-77" placement="below">3</fingering>
          </technical>
        </notations>
      </note>
      <note default-x="11">
        <chord/>
        <pitch>
          <step>A</step>
          <octave>3</octave>
        </pitch>
        <duration>24</duration>
        <voice>2</voice>
        <type>quarter</type>
        <stem>down</stem>
        <staff>2</staff>
      </note>
      <note default-x="90">
        <rest/>
        <duration>24</duration>
        <voice>2</voice>
        <type>quarter</type>
        <staff>2</staff>
      </note>
    </measure>
    <!--=======================================================-->
    <measure number="13" width="306">
      <print new-system="yes">
        <system-layout>
          <system-distance>127</system-distance>
        </system-layout>
      </print>
      <attributes>
        <clef number="2">
          <sign>G</sign>
          <line>2</line>
        </clef>
      </attributes>
      <direction placement="below">
        <direction-type>
          <dynamics default-y="-80">
            <p/>
          </dynamics>
        </direction-type>
        <offset sound="yes">2</offset>
        <staff>1</staff>
        <sound dynamics="84"/>
      </direction>
      <note default-x="75">
        <pitch>
          <step>F</step>
          <octave>5</octave>
        </pitch>
        <duration>8</duration>
        <voice>1</voice>
        <type>eighth</type>
        <time-modification>
          <actual-notes>3</actual-notes>
          <normal-notes>2</normal-notes>
        </time-modification>
        <stem default-y="-35">down</stem>
        <staff>1</staff>
        <beam number="1">begin</beam>
        <notations>
          <tuplet number="1" placement="below" type="start"/>
          <articulations>
            <staccato default-y="10" placement="above"/>
          </articulations>
          <technical>
            <fingering default-y="22" placement="above">1</fingering>
          </technical>
        </notations>
      </note>
      <note default-x="113">
        <rest/>
        <duration>8</duration>
        <voice>1</voice>
        <type>eighth</type>
        <time-modification>
          <actual-notes>3</actual-notes>
          <normal-notes>2</normal-notes>
        </time-modification>
        <staff>1</staff>
      </note>
      <note default-x="151">
        <pitch>
          <step>F</step>
          <octave>5</octave>
        </pitch>
        <duration>8</duration>
        <voice>1</voice>
        <type>eighth</type>
        <time-modification>
          <actual-notes>3</actual-notes>
          <normal-notes>2</normal-notes>
        </time-modification>
        <stem default-y="-35">down</stem>
        <staff>1</staff>
        <beam number="1">end</beam>
        <notations>
          <tuplet number="1" type="stop"/>
          <slur bezier-x="6" bezier-y="43" default-x="6" default-y="17" number="1" placement="above" type="start"/>
        </notations>
      </note>
      <note default-x="190">
        <pitch>
          <step>F</step>
          <octave>6</octave>
        </pitch>
        <duration>8</duration>
        <voice>1</voice>
        <type>eighth</type>
        <time-modification>
          <actual-notes>3</actual-notes>
          <normal-notes>2</normal-notes>
        </time-modification>
        <stem default-y="-20">down</stem>
        <staff>1</staff>
        <beam number="1">begin</beam>
        <notations>
          <tuplet number="1" placement="below" type="start"/>
        </notations>
      </note>
      <note default-x="228">
        <pitch>
          <step>E</step>
          <octave>6</octave>
        </pitch>
        <duration>8</duration>
        <voice>1</voice>
        <type>eighth</type>
        <time-modification>
          <actual-notes>3</actual-notes>
          <normal-notes>2</normal-notes>
        </time-modification>
        <stem default-y="-21">down</stem>
        <staff>1</staff>
        <beam number="1">continue</beam>
      </note>
      <note default-x="266">
        <pitch>
          <step>D</step>
          <octave>6</octave>
        </pitch>
        <duration>8</duration>
        <voice>1</voice>
        <type>eighth</type>
        <time-modification>
          <actual-notes>3</actual-notes>
          <normal-notes>2</normal-notes>
        </time-modification>
        <stem default-y="-22">down</stem>
        <staff>1</staff>
        <beam number="1">end</beam>
        <notations>
          <tuplet number="1" type="stop"/>
        </notations>
      </note>
      <backup>
        <duration>48</duration>
      </backup>
      <note default-x="75">
        <pitch>
          <step>F</step>
          <octave>4</octave>
        </pitch>
        <duration>12</duration>
        <voice>2</voice>
        <type>eighth</type>
        <stem default-y="21">up</stem>
        <staff>2</staff>
        <notations>
          <articulations>
            <staccato default-y="-48" placement="below"/>
          </articulations>
          <technical>
            <fingering default-y="-67" placement="below">1</fingering>
            <fingering default-y="-97" placement="below">5</fingering>
            <fingering default-y="-82" placement="below">3</fingering>
          </technical>
        </notations>
      </note>
      <note default-x="75">
        <chord/>
        <pitch>
          <step>A</step>
          <octave>4</octave>
        </pitch>
        <duration>12</duration>
        <voice>2</voice>
        <type>eighth</type>
        <stem>up</stem>
        <staff>2</staff>
      </note>
      <note default-x="75">
        <chord/>
        <pitch>
          <step>C</step>
          <octave>5</octave>
        </pitch>
        <duration>12</duration>
        <voice>2</voice>
        <type>eighth</type>
        <stem>up</stem>
        <staff>2</staff>
      </note>
      <note default-x="133">
        <rest/>
        <duration>12</duration>
        <voice>2</voice>
        <type>eighth</type>
        <staff>2</staff>
      </note>
      <note default-x="190">
        <pitch>
          <step>F</step>
          <octave>4</octave>
        </pitch>
        <duration>12</duration>
        <voice>2</voice>
        <type>eighth</type>
        <stem default-y="26">up</stem>
        <staff>2</staff>
        <notations>
          <articulations>
            <staccato default-y="-48" placement="below"/>
          </articulations>
        </notations>
      </note>
      <note default-x="190">
        <chord/>
        <pitch>
          <step>B</step>
          <alter>-1</alter>
          <octave>4</octave>
        </pitch>
        <duration>12</duration>
        <voice>2</voice>
        <type>eighth</type>
        <stem>up</stem>
        <staff>2</staff>
      </note>
      <note default-x="190">
        <chord/>
        <pitch>
          <step>D</step>
          <octave>5</octave>
        </pitch>
        <duration>12</duration>
        <voice>2</voice>
        <type>eighth</type>
        <stem>up</stem>
        <staff>2</staff>
      </note>
      <note default-x="248">
        <rest/>
        <duration>12</duration>
        <voice>2</voice>
        <type>eighth</type>
        <staff>2</staff>
      </note>
    </measure>
    <!--=======================================================-->
    <measure number="14" width="280">
      <note default-x="13">
        <pitch>
          <step>C</step>
          <octave>6</octave>
        </pitch>
        <duration>12</duration>
        <voice>1</voice>
        <type>eighth</type>
        <stem default-y="-20">down</stem>
        <staff>1</staff>
        <beam number="1">begin</beam>
        <notations>
          <slur bezier-x="-38" bezier-y="37" default-x="2" default-y="31" number="1" type="stop"/>
        </notations>
      </note>
      <note default-x="73">
        <rest/>
        <duration>6</duration>
        <voice>1</voice>
        <type>16th</type>
        <staff>1</staff>
      </note>
      <note default-x="110">
        <pitch>
          <step>C</step>
          <octave>6</octave>
        </pitch>
        <duration>6</duration>
        <voice>1</voice>
        <type>16th</type>
        <stem default-y="-20">down</stem>
        <staff>1</staff>
        <beam number="1">end</beam>
        <beam number="2">backward hook</beam>
        <notations>
          <slur number="1" placement="above" type="start"/>
          <technical>
            <fingering default-y="37" placement="above">4</fingering>
          </technical>
        </notations>
      </note>
      <note default-x="147">
        <pitch>
          <step>B</step>
          <octave>5</octave>
        </pitch>
        <duration>12</duration>
        <voice>1</voice>
        <type>eighth</type>
        <accidental>natural</accidental>
        <stem default-y="-20">down</stem>
        <staff>1</staff>
        <beam number="1">begin</beam>
        <notations>
          <slur number="1" type="stop"/>
        </notations>
      </note>
      <note default-x="206">
        <rest/>
        <duration>6</duration>
        <voice>1</voice>
        <type>16th</type>
        <staff>1</staff>
      </note>
      <note default-x="242">
        <pitch>
          <step>B</step>
          <octave>5</octave>
        </pitch>
        <duration>6</duration>
        <voice>1</voice>
        <type>16th</type>
        <stem default-y="-20">down</stem>
        <staff>1</staff>
        <beam number="1">end</beam>
        <beam number="2">backward hook</beam>
        <notations>
          <technical>
            <fingering default-y="25" placement="above">4</fingering>
          </technical>
        </notations>
      </note>
      <backup>
        <duration>48</duration>
      </backup>
      <note default-x="13">
        <pitch>
          <step>F</step>
          <octave>4</octave>
        </pitch>
        <duration>12</duration>
        <voice>2</voice>
        <type>eighth</type>
        <stem default-y="21">up</stem>
        <staff>2</staff>
        <notations>
          <articulations>
            <staccato default-y="-48" placement="below"/>
          </articulations>
        </notations>
      </note>
      <note default-x="13">
        <chord/>
        <pitch>
          <step>A</step>
          <octave>4</octave>
        </pitch>
        <duration>12</duration>
        <voice>2</voice>
        <type>eighth</type>
        <stem>up</stem>
        <staff>2</staff>
      </note>
      <note default-x="13">
        <chord/>
        <pitch>
          <step>C</step>
          <octave>5</octave>
        </pitch>
        <duration>12</duration>
        <voice>2</voice>
        <type>eighth</type>
        <stem>up</stem>
        <staff>2</staff>
      </note>
      <note default-x="73">
        <rest/>
        <duration>12</duration>
        <voice>2</voice>
        <type>eighth</type>
        <staff>2</staff>
      </note>
      <note default-x="147">
        <pitch>
          <step>D</step>
          <octave>5</octave>
        </pitch>
        <duration>12</duration>
        <voice>2</voice>
        <type>eighth</type>
        <stem default-y="-46">down</stem>
        <staff>2</staff>
        <notations>
          <articulations>
            <staccato default-y="10" placement="above"/>
          </articulations>
          <technical>
            <fingering default-y="-61" placement="below">1</fingering>
            <fingering default-y="-78" placement="below">2</fingering>
          </technical>
        </notations>
      </note>
      <note default-x="147">
        <chord/>
        <pitch>
          <step>F</step>
          <octave>5</octave>
        </pitch>
        <duration>12</duration>
        <voice>2</voice>
        <type>eighth</type>
        <stem>down</stem>
        <staff>2</staff>
      </note>
      <note default-x="206">
        <rest/>
        <duration>12</duration>
        <voice>2</voice>
        <type>eighth</type>
        <staff>2</staff>
      </note>
    </measure>
    <!--=======================================================-->
    <measure number="15" width="272">
      <note default-x="13">
        <pitch>
          <step>A</step>
          <octave>5</octave>
        </pitch>
        <duration>12</duration>
        <voice>1</voice>
        <type>eighth</type>
        <stem default-y="-25">down</stem>
        <staff>1</staff>
        <beam number="1">begin</beam>
      </note>
      <note default-x="71">
        <rest/>
        <duration>6</duration>
        <voice>1</voice>
        <type>16th</type>
        <staff>1</staff>
      </note>
      <note default-x="107">
        <pitch>
          <step>A</step>
          <octave>5</octave>
        </pitch>
        <duration>6</duration>
        <voice>1</voice>
        <type>16th</type>
        <stem default-y="-25">down</stem>
        <staff>1</staff>
        <beam number="1">end</beam>
        <beam number="2">backward hook</beam>
        <notations>
          <slur number="1" placement="above" type="start"/>
          <technical>
            <fingering default-y="26" placement="above">4</fingering>
          </technical>
        </notations>
      </note>
      <note default-x="142">
        <pitch>
          <step>E</step>
          <octave>5</octave>
        </pitch>
        <duration>12</duration>
        <voice>1</voice>
        <type>eighth</type>
        <stem default-y="-35">down</stem>
        <staff>1</staff>
        <beam number="1">begin</beam>
        <notations>
          <slur number="1" type="stop"/>
          <technical>
            <fingering default-y="23" placement="above">1</fingering>
            <fingering default-y="39" placement="above">3</fingering>
          </technical>
        </notations>
      </note>
      <note default-x="142">
        <chord/>
        <pitch>
          <step>G</step>
          <alter>1</alter>
          <octave>5</octave>
        </pitch>
        <duration>12</duration>
        <voice>1</voice>
        <type>eighth</type>
        <accidental>sharp</accidental>
        <stem>down</stem>
        <staff>1</staff>
      </note>
      <note default-x="199">
        <rest/>
        <duration>6</duration>
        <voice>1</voice>
        <type>16th</type>
        <staff>1</staff>
      </note>
      <note default-x="235">
        <pitch>
          <step>G</step>
          <alter>1</alter>
          <octave>5</octave>
        </pitch>
        <duration>6</duration>
        <voice>1</voice>
        <type>16th</type>
        <stem default-y="-32.5">down</stem>
        <staff>1</staff>
        <beam number="1">end</beam>
        <beam number="2">backward hook</beam>
        <notations>
          <slur number="1" placement="above" type="start"/>
          <technical>
            <fingering default-y="23" placement="above">4</fingering>
          </technical>
        </notations>
      </note>
      <backup>
        <duration>48</duration>
      </backup>
      <note default-x="13">
        <pitch>
          <step>C</step>
          <octave>5</octave>
        </pitch>
        <duration>12</duration>
        <voice>2</voice>
        <type>eighth</type>
        <stem default-y="-50.5">down</stem>
        <staff>2</staff>
        <notations>
          <articulations>
            <staccato placement="above"/>
          </articulations>
          <technical>
            <fingering default-y="-62" placement="below">1</fingering>
            <fingering default-y="-80" placement="below">3</fingering>
          </technical>
        </notations>
      </note>
      <note default-x="13">
        <chord/>
        <pitch>
          <step>E</step>
          <octave>5</octave>
        </pitch>
        <duration>12</duration>
        <voice>2</voice>
        <type>eighth</type>
        <stem>down</stem>
        <staff>2</staff>
      </note>
      <note default-x="71">
        <rest/>
        <duration>12</duration>
        <voice>2</voice>
        <type>eighth</type>
        <staff>2</staff>
      </note>
      <note default-x="142">
        <pitch>
          <step>E</step>
          <octave>4</octave>
        </pitch>
        <duration>12</duration>
        <voice>2</voice>
        <type>eighth</type>
        <stem default-y="26">up</stem>
        <staff>2</staff>
        <notations>
          <articulations>
            <staccato default-y="-54" placement="below"/>
          </articulations>
          <technical>
            <fingering default-y="-72" placement="below">1</fingering>
            <fingering default-y="-102" placement="below">5</fingering>
            <fingering default-y="-87" placement="below">2</fingering>
          </technical>
        </notations>
      </note>
      <note default-x="142">
        <chord/>
        <pitch>
          <step>B</step>
          <octave>4</octave>
        </pitch>
        <duration>12</duration>
        <voice>2</voice>
        <type>eighth</type>
        <accidental>natural</accidental>
        <stem>up</stem>
        <staff>2</staff>
      </note>
      <note default-x="142">
        <chord/>
        <pitch>
          <step>D</step>
          <octave>5</octave>
        </pitch>
        <duration>12</duration>
        <voice>2</voice>
        <type>eighth</type>
        <stem>up</stem>
        <staff>2</staff>
      </note>
      <note default-x="199">
        <rest/>
        <duration>12</duration>
        <voice>2</voice>
        <type>eighth</type>
        <staff>2</staff>
      </note>
    </measure>
    <!--=======================================================-->
    <measure number="16" width="125">
      <note default-x="13">
        <pitch>
          <step>E</step>
          <octave>5</octave>
        </pitch>
        <duration>48</duration>
        <voice>1</voice>
        <type>half</type>
        <stem default-y="-41">down</stem>
        <staff>1</staff>
        <notations>
          <slur number="1" type="stop"/>
          <articulations>
            <accent default-y="23" placement="above"/>
          </articulations>
        </notations>
      </note>
      <note default-x="13">
        <chord/>
        <pitch>
          <step>A</step>
          <octave>5</octave>
        </pitch>
        <duration>48</duration>
        <voice>1</voice>
        <type>half</type>
        <stem>down</stem>
        <staff>1</staff>
      </note>
      <backup>
        <duration>48</duration>
      </backup>
      <note default-x="13">
        <pitch>
          <step>A</step>
          <octave>4</octave>
        </pitch>
        <duration>48</duration>
        <voice>2</voice>
        <type>half</type>
        <stem default-y="-50.5">down</stem>
        <staff>2</staff>
        <notations>
          <articulations>
            <accent placement="above"/>
          </articulations>
          <technical>
            <fingering default-y="-61" placement="below">1</fingering>
            <fingering default-y="-77" placement="below">3</fingering>
          </technical>
        </notations>
      </note>
      <note default-x="13">
        <chord/>
        <pitch>
          <step>C</step>
          <octave>5</octave>
        </pitch>
        <duration>48</duration>
        <voice>2</voice>
        <type>half</type>
        <stem>down</stem>
        <staff>2</staff>
      </note>
      <barline location="right">
        <bar-style>light-heavy</bar-style>
      </barline>
    </measure>
  </part>
  <!--=========================================================-->
</score-partwise>
